<svg xmlns="http://www.w3.org/2000/svg" xmlns:xlink="http://www.w3.org/1999/xlink" width="1024" zoomAndPan="magnify" viewBox="0 0 768 767.999994" height="1024" preserveAspectRatio="xMidYMid meet" version="1.0"><defs><clipPath id="0e6fa87278"><path d="M 159.347656 159.347656 L 608.597656 159.347656 L 608.597656 608.597656 L 159.347656 608.597656 Z M 159.347656 159.347656 " clip-rule="nonzero"/></clipPath><clipPath id="386b942cf0"><path d="M 562 160 L 651 160 L 651 254 L 562 254 Z M 562 160 " clip-rule="nonzero"/></clipPath><clipPath id="3302ae993d"><path d="M 472.78125 68.9375 L 662.933594 89.40625 L 636.046875 339.214844 L 445.894531 318.746094 Z M 472.78125 68.9375 " clip-rule="nonzero"/></clipPath><clipPath id="4fb389615d"><path d="M 472.78125 68.9375 L 662.933594 89.40625 L 636.046875 339.214844 L 445.894531 318.746094 Z M 472.78125 68.9375 " clip-rule="nonzero"/></clipPath><clipPath id="27f572089a"><path d="M 470 74 L 576 74 L 576 188 L 470 188 Z M 470 74 " clip-rule="nonzero"/></clipPath><clipPath id="0e2b10d46d"><path d="M 472.78125 68.9375 L 662.933594 89.40625 L 636.046875 339.214844 L 445.894531 318.746094 Z M 472.78125 68.9375 " clip-rule="nonzero"/></clipPath><clipPath id="b382948c0e"><path d="M 472.78125 68.9375 L 662.933594 89.40625 L 636.046875 339.214844 L 445.894531 318.746094 Z M 472.78125 68.9375 " clip-rule="nonzero"/></clipPath><clipPath id="797c18fb8f"><path d="M 451 221 L 541 221 L 541 324 L 451 324 Z M 451 221 " clip-rule="nonzero"/></clipPath><clipPath id="57c95f0f41"><path d="M 472.78125 68.9375 L 662.933594 89.40625 L 636.046875 339.214844 L 445.894531 318.746094 Z M 472.78125 68.9375 " clip-rule="nonzero"/></clipPath><clipPath id="6924bfdcdd"><path d="M 472.78125 68.9375 L 662.933594 89.40625 L 636.046875 339.214844 L 445.894531 318.746094 Z M 472.78125 68.9375 " clip-rule="nonzero"/></clipPath></defs><rect x="-76.8" width="921.6" fill="#ffffff" y="-76.799999" height="921.599993" fill-opacity="1"/><rect x="-76.8" width="921.6" fill="#000000" y="-76.799999" height="921.599993" fill-opacity="1"/><g clip-path="url(#0e6fa87278)"><path fill="#ffffff" d="M 608.488281 379.554688 C 608.359375 373.996094 608.046875 368.414062 607.578125 362.855469 C 607.113281 357.503906 606.4375 352.15625 605.605469 346.832031 C 604.773438 341.507812 603.761719 336.183594 602.566406 330.910156 C 601.371094 325.640625 600.023438 320.417969 598.488281 315.25 C 596.90625 309.902344 595.113281 304.601562 593.164062 299.382812 C 591.296875 294.34375 589.242188 289.382812 587.011719 284.5 C 584.804688 279.617188 582.386719 274.8125 579.84375 270.085938 C 577.269531 265.359375 574.542969 260.738281 571.636719 256.191406 C 568.621094 251.492188 565.429688 246.921875 562.050781 242.480469 C 558.804688 238.167969 555.402344 234.015625 551.847656 229.960938 C 548.289062 225.9375 544.574219 222.042969 540.679688 218.300781 C 536.78125 214.535156 532.707031 210.925781 528.523438 207.496094 C 524.1875 203.941406 519.695312 200.589844 515.097656 197.394531 C 510.65625 194.332031 506.085938 191.472656 501.410156 188.773438 C 496.734375 186.097656 491.984375 183.605469 487.125 181.292969 C 482.0625 178.902344 476.917969 176.695312 471.699219 174.695312 C 466.6875 172.773438 461.621094 171.007812 456.480469 169.449219 C 451.339844 167.890625 446.144531 166.515625 440.898438 165.320312 C 435.625 164.125 430.328125 163.113281 424.976562 162.28125 C 419.394531 161.425781 413.808594 160.722656 408.175781 160.257812 C 402.773438 159.789062 397.371094 159.503906 391.941406 159.398438 C 386.539062 159.296875 381.140625 159.398438 375.738281 159.632812 C 370.308594 159.894531 364.90625 160.335938 359.53125 160.957031 C 353.921875 161.605469 348.3125 162.410156 342.753906 163.425781 C 337.429688 164.410156 332.132812 165.554688 326.886719 166.878906 C 321.640625 168.203125 316.445312 169.710938 311.304688 171.398438 C 305.925781 173.164062 300.601562 175.136719 295.355469 177.265625 C 290.371094 179.292969 285.488281 181.5 280.65625 183.890625 C 275.851562 186.253906 271.125 188.824219 266.503906 191.550781 C 261.878906 194.277344 257.335938 197.1875 252.921875 200.277344 C 248.273438 203.523438 243.726562 206.898438 239.363281 210.511719 C 235.183594 213.9375 231.15625 217.523438 227.289062 221.289062 C 223.261719 225.183594 219.390625 229.285156 215.703125 233.519531 C 211.238281 238.664062 206.953125 243.988281 202.953125 249.519531 C 199.136719 254.816406 195.550781 260.269531 192.199219 265.878906 C 188.71875 271.722656 185.5 277.75 182.539062 283.878906 C 179.683594 289.773438 177.085938 295.796875 174.75 301.929688 C 172.410156 308.058594 170.332031 314.265625 168.515625 320.574219 C 166.644531 327.121094 165.0625 333.742188 163.738281 340.390625 C 162.464844 346.804688 161.476562 353.246094 160.777344 359.738281 C 160.074219 366.257812 159.632812 372.800781 159.503906 379.347656 C 159.375 386.175781 159.554688 393.007812 160.046875 399.8125 C 160.464844 405.605469 161.085938 411.34375 161.945312 417.082031 C 162.800781 422.71875 163.867188 428.328125 165.140625 433.886719 C 166.410156 439.417969 167.917969 444.898438 169.632812 450.324219 C 171.425781 455.988281 173.398438 461.570312 175.605469 467.078125 C 177.707031 472.296875 179.996094 477.464844 182.460938 482.53125 C 184.929688 487.566406 187.605469 492.527344 190.460938 497.359375 C 193.292969 502.191406 196.328125 506.917969 199.523438 511.539062 C 202.875 516.371094 206.40625 521.097656 210.121094 525.667969 C 213.625 530.003906 217.316406 534.210938 221.132812 538.289062 C 224.976562 542.367188 228.976562 546.3125 233.105469 550.078125 C 237.261719 553.871094 241.546875 557.507812 245.960938 560.960938 C 250.636719 564.625 255.441406 568.128906 260.375 571.402344 C 265.074219 574.519531 269.878906 577.480469 274.789062 580.207031 C 279.75 582.984375 284.8125 585.554688 289.980469 587.945312 C 295.433594 590.464844 301.019531 592.722656 306.65625 594.828125 C 312.109375 596.851562 317.691406 598.59375 323.300781 600.152344 C 329.015625 601.734375 334.808594 603.085938 340.648438 604.203125 C 346.753906 605.371094 352.933594 606.28125 359.117188 606.980469 C 364.960938 607.632812 370.800781 608.074219 376.671875 608.28125 C 382.515625 608.488281 388.386719 608.460938 394.226562 608.230469 C 400.070312 607.996094 405.914062 607.527344 411.734375 606.851562 C 417.863281 606.125 423.964844 605.214844 430.015625 604.046875 C 435.753906 602.929688 441.417969 601.605469 447.054688 600.046875 C 452.664062 598.515625 458.195312 596.75 463.648438 594.800781 C 469.441406 592.722656 475.179688 590.4375 480.789062 587.917969 C 486.085938 585.554688 491.28125 582.960938 496.371094 580.179688 C 501.488281 577.402344 506.476562 574.390625 511.355469 571.195312 C 516.5 567.816406 521.539062 564.234375 526.394531 560.441406 C 531.015625 556.832031 535.484375 553.066406 539.796875 549.09375 C 544.105469 545.121094 548.261719 540.9375 552.210938 536.625 C 556.105469 532.367188 559.84375 527.925781 563.402344 523.382812 C 563.972656 522.65625 564.183594 521.40625 564 520.523438 C 563.820312 519.589844 563.144531 518.601562 562.285156 518.160156 C 561.402344 517.695312 560.3125 517.511719 559.324219 517.773438 C 558.234375 518.082031 557.429688 518.679688 556.726562 519.5625 C 554.804688 522.03125 552.808594 524.421875 550.78125 526.808594 C 546.445312 531.796875 541.898438 536.601562 537.121094 541.144531 C 532.265625 545.769531 527.171875 550.15625 521.902344 554.289062 C 519.070312 556.496094 516.1875 558.625 513.253906 560.703125 C 507.589844 564.648438 501.746094 568.335938 495.75 571.714844 C 489.59375 575.195312 483.257812 578.386719 476.789062 581.246094 C 473.335938 582.777344 469.828125 584.230469 466.273438 585.582031 C 459.546875 588.128906 452.6875 590.386719 445.730469 592.308594 C 438.613281 594.257812 431.417969 595.867188 424.148438 597.140625 C 420.277344 597.8125 416.40625 598.386719 412.511719 598.851562 C 405.292969 599.710938 398.046875 600.230469 390.773438 600.386719 C 383.347656 600.542969 375.917969 600.386719 368.515625 599.8125 C 364.570312 599.527344 360.648438 599.113281 356.726562 598.621094 C 349.480469 597.660156 342.261719 596.359375 335.144531 594.722656 C 327.976562 593.0625 320.886719 591.035156 313.898438 588.671875 C 310.289062 587.453125 306.730469 586.101562 303.175781 584.699219 C 296.1875 581.867188 289.332031 578.671875 282.683594 575.117188 C 276.007812 571.558594 269.515625 567.636719 263.257812 563.402344 C 259.933594 561.167969 256.6875 558.832031 253.519531 556.417969 C 250.324219 553.976562 247.179688 551.429688 244.140625 548.832031 C 241 546.132812 237.933594 543.378906 234.949219 540.496094 C 231.960938 537.640625 229.054688 534.703125 226.25 531.691406 C 223.417969 528.652344 220.664062 525.5625 218.015625 522.367188 C 215.367188 519.199219 212.820312 515.953125 210.355469 512.65625 C 210.199219 512.472656 210.070312 512.265625 209.914062 512.085938 C 207.472656 508.761719 205.109375 505.359375 202.847656 501.878906 C 200.539062 498.347656 198.328125 494.734375 196.226562 491.046875 C 194.121094 487.386719 192.121094 483.671875 190.253906 479.90625 C 188.355469 476.113281 186.566406 472.269531 184.875 468.375 C 183.1875 464.480469 181.628906 460.558594 180.175781 456.585938 C 180.070312 456.324219 179.996094 456.089844 179.917969 455.832031 C 178.59375 452.117188 177.371094 448.378906 176.253906 444.613281 C 175.113281 440.769531 174.074219 436.871094 173.136719 432.976562 C 172.203125 429.082031 171.371094 425.132812 170.671875 421.1875 C 169.945312 417.1875 169.320312 413.1875 168.828125 409.160156 C 168.308594 405.03125 167.917969 400.902344 167.632812 396.773438 C 167.632812 396.4375 167.582031 396.097656 167.582031 395.785156 C 167.136719 388.046875 167.113281 380.28125 167.476562 372.542969 C 167.839844 364.726562 168.644531 356.910156 169.8125 349.167969 C 170.4375 345.039062 171.214844 340.9375 172.074219 336.832031 C 173.65625 329.507812 175.554688 322.289062 177.839844 315.148438 C 180.148438 307.925781 182.824219 300.8125 185.835938 293.824219 C 187.449219 290.109375 189.160156 286.421875 190.980469 282.8125 C 194.121094 276.582031 197.523438 270.476562 201.238281 264.554688 C 205.003906 258.53125 209.054688 252.714844 213.394531 247.078125 C 215.730469 244.039062 218.171875 241.078125 220.664062 238.167969 C 224.871094 233.3125 229.3125 228.636719 233.988281 224.222656 C 238.585938 219.859375 243.390625 215.703125 248.402344 211.808594 C 251.078125 209.703125 253.828125 207.679688 256.609375 205.730469 C 262.21875 201.808594 268.035156 198.148438 274.007812 194.796875 C 280.085938 191.371094 286.34375 188.226562 292.734375 185.394531 C 296.1875 183.863281 299.695312 182.410156 303.226562 181.058594 C 306.65625 179.761719 310.132812 178.515625 313.613281 177.371094 C 317.25 176.175781 320.914062 175.085938 324.574219 174.074219 C 328.289062 173.058594 332.003906 172.125 335.769531 171.292969 C 339.507812 170.464844 343.246094 169.710938 347.039062 169.0625 C 350.832031 168.410156 354.621094 167.839844 358.441406 167.347656 C 358.675781 167.320312 358.882812 167.292969 359.117188 167.269531 C 362.960938 166.800781 366.828125 166.4375 370.671875 166.179688 C 374.566406 165.890625 378.464844 165.710938 382.359375 165.632812 C 386.253906 165.554688 390.175781 165.554688 394.074219 165.632812 C 397.96875 165.734375 401.863281 165.917969 405.757812 166.203125 C 409.65625 166.488281 413.523438 166.878906 417.394531 167.347656 C 417.652344 167.371094 417.914062 167.398438 418.171875 167.449219 C 421.863281 167.945312 425.523438 168.488281 429.183594 169.136719 C 432.875 169.8125 436.5625 170.539062 440.222656 171.398438 C 443.859375 172.230469 447.496094 173.164062 451.078125 174.175781 C 454.664062 175.191406 458.246094 176.304688 461.777344 177.5 C 465.3125 178.695312 468.816406 179.96875 472.269531 181.34375 C 472.503906 181.449219 472.738281 181.527344 472.972656 181.628906 C 479.515625 184.28125 485.933594 187.242188 492.191406 190.539062 C 498.476562 193.863281 504.578125 197.5 510.472656 201.445312 C 513.695312 203.601562 516.835938 205.863281 519.902344 208.199219 C 522.835938 210.433594 525.691406 212.742188 528.472656 215.160156 C 531.328125 217.625 534.132812 220.171875 536.835938 222.769531 C 539.535156 225.367188 542.160156 228.039062 544.703125 230.765625 C 547.25 233.496094 549.714844 236.300781 552.105469 239.183594 C 554.496094 242.039062 556.804688 244.972656 559.015625 247.960938 C 559.167969 248.195312 559.351562 248.402344 559.507812 248.636719 C 561.972656 252.011719 564.363281 255.464844 566.648438 258.972656 C 568.933594 262.503906 571.140625 266.113281 573.21875 269.777344 C 575.324219 273.464844 577.296875 277.203125 579.191406 280.996094 C 581.0625 284.785156 582.828125 288.605469 584.492188 292.5 C 586.152344 296.394531 587.738281 300.34375 589.191406 304.316406 C 589.320312 304.65625 589.425781 304.964844 589.554688 305.304688 C 591.035156 309.460938 592.414062 313.640625 593.660156 317.847656 C 594.90625 322.105469 596.046875 326.390625 597.085938 330.703125 C 598.101562 335.039062 599.007812 339.402344 599.789062 343.765625 C 600.566406 348.128906 601.214844 352.519531 601.761719 356.910156 C 602.308594 361.324219 602.722656 365.765625 603.007812 370.207031 C 603.007812 370.59375 603.058594 370.957031 603.085938 371.347656 C 603.320312 375.375 603.449219 379.425781 603.476562 383.449219 C 603.5 387.503906 603.425781 391.578125 603.242188 395.632812 C 603.058594 399.707031 602.773438 403.757812 602.386719 407.8125 C 601.996094 411.835938 601.503906 415.863281 600.90625 419.863281 C 600.308594 423.886719 599.582031 427.886719 598.773438 431.859375 C 598.699219 432.171875 598.644531 432.507812 598.566406 432.820312 C 597.347656 438.5625 595.890625 444.222656 594.230469 449.859375 C 592.542969 455.492188 590.621094 461.050781 588.492188 466.53125 C 586.335938 471.984375 583.972656 477.363281 581.375 482.632812 C 581.296875 482.789062 581.21875 482.972656 581.140625 483.125 C 581.140625 483.125 581.140625 483.125 581.140625 483.152344 C 580.984375 483.464844 580.828125 483.800781 580.648438 484.113281 C 580.308594 484.761719 579.972656 485.414062 579.660156 486.0625 C 578.960938 487.386719 578.257812 488.683594 577.558594 490.007812 C 576.128906 492.582031 574.648438 495.152344 573.117188 497.644531 C 570.023438 502.707031 566.699219 507.617188 563.167969 512.371094 C 562.726562 512.96875 562.285156 513.539062 561.84375 514.136719 C 561.117188 515.097656 561.429688 516.707031 562.519531 517.277344 C 563.742188 517.902344 565.066406 517.460938 565.871094 516.421875 C 569.167969 512.109375 572.285156 507.667969 575.195312 503.097656 C 578.101562 498.554688 580.828125 493.90625 583.347656 489.152344 C 585.945312 484.269531 588.359375 479.257812 590.566406 474.191406 C 592.699219 469.285156 594.621094 464.296875 596.386719 459.257812 C 598.125 454.222656 599.683594 449.105469 601.0625 443.9375 C 602.464844 438.585938 603.683594 433.183594 604.722656 427.730469 C 605.710938 422.457031 606.515625 417.136719 607.136719 411.785156 C 607.761719 406.433594 608.203125 401.058594 608.4375 395.683594 C 608.695312 390.308594 608.746094 384.929688 608.644531 379.582031 Z M 608.488281 379.554688 " fill-opacity="1" fill-rule="nonzero"/></g><path fill="#ffffff" d="M 317.953125 407.472656 C 319.953125 413.914062 322.757812 420.09375 326.46875 425.757812 C 330.15625 431.394531 334.597656 436.535156 339.820312 440.792969 C 342.519531 443 345.378906 445 348.414062 446.742188 C 351.480469 448.480469 354.675781 449.9375 357.972656 451.183594 C 364.308594 453.570312 371.011719 454.921875 377.738281 455.390625 C 384.566406 455.882812 391.476562 455.390625 398.203125 454.011719 C 404.875 452.664062 411.421875 450.402344 417.523438 447.3125 C 423.601562 444.222656 429.316406 440.222656 434.222656 435.46875 C 436.792969 432.976562 439.15625 430.277344 441.261719 427.417969 C 443.859375 423.914062 446.039062 420.171875 447.9375 416.277344 C 451.648438 408.695312 453.933594 400.359375 454.820312 391.96875 C 455.648438 383.890625 455.128906 375.582031 453.078125 367.710938 C 451.234375 360.570312 448.246094 353.6875 444.300781 347.480469 C 440.351562 341.273438 435.546875 335.585938 429.964844 330.78125 C 424.378906 325.949219 418.121094 321.847656 411.34375 318.914062 C 407.835938 317.378906 404.226562 316.082031 400.488281 315.148438 C 396.722656 314.1875 392.851562 313.640625 388.980469 313.355469 C 381.503906 312.785156 373.894531 313.511719 366.59375 315.304688 C 359.324219 317.070312 352.234375 319.953125 345.820312 323.769531 C 339.351562 327.613281 333.378906 332.367188 328.417969 338 C 325.925781 340.832031 323.613281 343.820312 321.585938 347.011719 C 321.066406 347.84375 320.78125 348.882812 320.992188 349.871094 C 321.171875 350.777344 321.847656 351.765625 322.703125 352.207031 C 320.03125 357.0625 317.976562 362.257812 316.652344 367.632812 C 315.042969 374.179688 314.34375 380.878906 314.601562 387.605469 C 314.859375 394.359375 315.976562 401.058594 318.003906 407.527344 Z M 320.472656 372.984375 C 320.574219 372.359375 320.679688 371.710938 320.808594 371.089844 C 320.859375 370.800781 320.9375 370.492188 320.992188 370.207031 C 320.992188 370.207031 320.992188 370.207031 320.992188 370.179688 C 321.015625 370.023438 321.066406 369.867188 321.09375 369.710938 C 321.378906 368.464844 321.691406 367.21875 322.054688 365.972656 C 322.78125 363.480469 323.640625 361.039062 324.652344 358.648438 C 324.9375 358 325.222656 357.324219 325.535156 356.699219 C 325.691406 356.390625 325.847656 356.050781 326.003906 355.738281 C 326.003906 355.738281 326.003906 355.714844 326.003906 355.6875 C 326.082031 355.53125 326.160156 355.375 326.238281 355.21875 C 326.910156 353.894531 327.640625 352.621094 328.417969 351.375 C 328.675781 350.960938 328.78125 350.441406 328.753906 349.949219 C 330.105469 347.921875 331.585938 345.949219 333.144531 344.078125 C 335.921875 340.882812 339.015625 337.949219 342.339844 335.351562 C 343.167969 334.703125 344.027344 334.078125 344.882812 333.457031 C 348.570312 330.910156 352.46875 328.703125 356.570312 326.886719 C 357.609375 326.417969 358.675781 326.003906 359.714844 325.585938 C 363.816406 324.054688 368.023438 322.886719 372.335938 322.132812 C 373.453125 321.925781 374.566406 321.769531 375.683594 321.640625 C 379.710938 321.199219 383.761719 321.09375 387.789062 321.378906 C 388.828125 321.457031 389.890625 321.5625 390.929688 321.691406 C 395.035156 322.261719 399.109375 323.222656 403.03125 324.574219 C 404.019531 324.910156 405.007812 325.277344 405.96875 325.664062 C 410.277344 327.457031 414.382812 329.664062 418.25 332.261719 C 419.238281 332.9375 420.226562 333.636719 421.1875 334.367188 C 425.289062 337.558594 429.054688 341.167969 432.378906 345.144531 C 433.238281 346.183594 434.066406 347.246094 434.898438 348.335938 C 437.832031 352.414062 440.351562 356.777344 442.351562 361.375 C 442.871094 362.597656 443.367188 363.816406 443.808594 365.0625 C 445.285156 369.347656 446.351562 373.761719 446.898438 378.257812 C 447.054688 379.605469 447.183594 380.957031 447.261719 382.308594 C 447.496094 386.929688 447.261719 391.605469 446.585938 396.175781 C 446.402344 397.398438 446.171875 398.589844 445.9375 399.785156 C 444.976562 404.070312 443.652344 408.277344 441.910156 412.328125 C 441.46875 413.367188 440.976562 414.40625 440.457031 415.421875 C 438.222656 419.808594 435.523438 423.9375 432.328125 427.703125 C 429.757812 430.640625 426.953125 433.316406 423.886719 435.703125 C 423.160156 436.273438 422.40625 436.820312 421.652344 437.367188 C 418.121094 439.832031 414.328125 441.960938 410.40625 443.703125 C 409.394531 444.144531 408.355469 444.585938 407.316406 444.976562 C 403.03125 446.585938 398.589844 447.804688 394.074219 448.585938 C 392.878906 448.792969 391.683594 448.949219 390.488281 449.105469 C 386.019531 449.597656 381.503906 449.726562 377.035156 449.390625 C 375.839844 449.3125 374.644531 449.183594 373.476562 449.027344 C 369.296875 448.457031 365.167969 447.519531 361.140625 446.171875 C 360.128906 445.832031 359.117188 445.441406 358.101562 445.054688 C 354.3125 443.496094 350.675781 441.597656 347.273438 439.3125 C 346.390625 438.714844 345.507812 438.09375 344.648438 437.445312 C 341.066406 434.664062 337.820312 431.523438 334.910156 428.042969 C 334.15625 427.132812 333.429688 426.199219 332.703125 425.238281 C 329.664062 421.054688 327.121094 416.5625 325.09375 411.8125 C 324.546875 410.511719 324.027344 409.214844 323.5625 407.890625 C 321.796875 402.902344 320.601562 397.707031 319.953125 392.460938 C 319.769531 391.058594 319.664062 389.65625 319.5625 388.230469 C 319.277344 383.164062 319.535156 378.074219 320.339844 373.0625 Z M 320.472656 372.984375 " fill-opacity="1" fill-rule="nonzero"/><path fill="#ffffff" d="M 204.382812 345.089844 C 204.824219 342.285156 205.367188 339.507812 205.9375 336.730469 C 207.132812 331.25 208.5625 325.820312 210.25 320.496094 C 212.015625 314.992188 214.042969 309.589844 216.328125 304.292969 C 217.546875 301.433594 218.871094 298.628906 220.25 295.851562 C 222.742188 290.917969 225.441406 286.085938 228.402344 281.4375 C 231.285156 276.867188 234.402344 272.425781 237.726562 268.140625 C 239.390625 265.984375 241.128906 263.90625 242.894531 261.828125 C 246.453125 257.726562 250.195312 253.804688 254.117188 250.0625 C 258.167969 246.195312 262.425781 242.53125 266.816406 239.050781 C 269.152344 237.207031 271.566406 235.441406 273.984375 233.726562 C 278.527344 230.558594 283.230469 227.597656 288.058594 224.871094 C 293.019531 222.066406 298.136719 219.546875 303.332031 217.210938 C 306.160156 215.9375 309.019531 214.769531 311.902344 213.652344 C 319.042969 210.953125 326.367188 208.796875 333.769531 206.898438 C 337.558594 205.9375 341.402344 205.109375 345.246094 204.433594 C 347.167969 204.09375 349.117188 203.785156 351.039062 203.496094 C 352.027344 203.367188 353.011719 203.238281 354 203.109375 C 353.949219 203.109375 353.921875 203.109375 353.84375 203.109375 C 353.921875 203.109375 354 203.109375 354.101562 203.082031 C 354.101562 203.082031 354.128906 203.082031 354.15625 203.082031 C 354.257812 203.082031 354.335938 203.082031 354.257812 203.082031 C 354.46875 203.082031 354.675781 203.03125 354.855469 203.003906 C 355.351562 202.953125 355.871094 202.902344 356.363281 202.847656 C 360.804688 202.40625 365.246094 202.171875 369.710938 202.148438 C 370.75 202.148438 371.839844 201.316406 371.867188 200.226562 C 371.894531 199.109375 371.089844 198.328125 369.996094 198.277344 C 365.6875 198.121094 361.375 198.121094 357.089844 198.277344 C 352.804688 198.433594 348.546875 198.746094 344.3125 199.238281 C 339.84375 199.757812 335.402344 200.40625 330.988281 201.289062 C 326.78125 202.121094 322.652344 203.238281 318.550781 204.457031 C 314.160156 205.785156 309.824219 207.316406 305.5625 208.953125 C 301.5625 210.511719 297.617188 212.199219 293.773438 214.066406 C 289.902344 215.9375 286.136719 217.9375 282.421875 220.09375 C 278.710938 222.25 275.074219 224.535156 271.542969 226.949219 C 267.75 229.546875 264.035156 232.246094 260.425781 235.105469 C 257.050781 237.78125 253.804688 240.558594 250.636719 243.46875 C 247.464844 246.375 244.429688 249.414062 241.492188 252.558594 C 238.351562 255.90625 235.339844 259.386719 232.480469 262.972656 C 229.703125 266.425781 227.054688 270.007812 224.558594 273.671875 C 221.859375 277.644531 219.339844 281.722656 216.976562 285.902344 C 214.484375 290.34375 212.171875 294.914062 210.042969 299.5625 C 208.042969 303.925781 206.226562 308.367188 204.589844 312.886719 C 202.953125 317.40625 201.5 321.976562 200.25 326.601562 C 198.925781 331.507812 197.785156 336.46875 196.875 341.480469 C 195.992188 346.207031 195.316406 350.960938 194.824219 355.714844 C 194.332031 360.492188 194.042969 365.269531 193.964844 370.074219 C 193.914062 372.414062 193.941406 374.722656 193.992188 377.0625 C 193.941406 377.605469 193.992188 378.101562 194.226562 378.566406 C 194.355469 379.085938 194.617188 379.527344 195.03125 379.890625 C 195.707031 380.59375 196.847656 381.0625 197.835938 381.035156 C 198.925781 381.007812 200.097656 380.644531 200.902344 379.839844 C 201.601562 379.140625 202.328125 378.125 202.304688 377.085938 C 202.171875 371.761719 202.25 366.414062 202.589844 361.089844 C 202.925781 355.738281 203.550781 350.414062 204.382812 345.144531 Z M 204.382812 345.089844 " fill-opacity="1" fill-rule="nonzero"/><path fill="#ffffff" d="M 354.050781 203.082031 C 354.050781 203.082031 354.257812 203.082031 354.3125 203.054688 C 354.285156 203.054688 354.234375 203.054688 354.207031 203.054688 C 354.15625 203.054688 354.101562 203.054688 354.050781 203.054688 Z M 354.050781 203.082031 " fill-opacity="1" fill-rule="nonzero"/><path fill="#ffffff" d="M 244.117188 365.996094 C 244.816406 365.996094 245.542969 365.738281 246.0625 365.246094 C 246.503906 364.804688 246.972656 364.152344 246.945312 363.480469 C 246.945312 363.039062 247 362.570312 247.050781 362.152344 C 247.078125 361.660156 247.128906 361.167969 247.179688 360.699219 C 247.257812 359.765625 247.285156 358.828125 247.335938 357.894531 C 247.414062 356.078125 247.464844 354.257812 247.597656 352.441406 C 247.832031 348.753906 248.21875 345.089844 248.792969 341.457031 C 249.101562 339.535156 249.464844 337.613281 249.855469 335.691406 C 251.519531 328.027344 253.933594 320.496094 257.023438 313.277344 C 257.882812 311.304688 258.789062 309.382812 259.726562 307.460938 C 263.023438 300.941406 266.917969 294.734375 271.359375 288.941406 C 272.554688 287.410156 273.773438 285.902344 275.046875 284.421875 C 279.878906 278.867188 285.28125 273.828125 291.070312 269.28125 C 292.628906 268.0625 294.242188 266.867188 295.851562 265.722656 C 301.980469 261.464844 308.5 257.777344 315.328125 254.738281 C 317.171875 253.90625 319.042969 253.15625 320.914062 252.425781 C 325.871094 250.558594 330.964844 249 336.078125 247.621094 C 341.300781 246.21875 346.597656 245.179688 351.949219 244.480469 C 352.128906 244.480469 352.335938 244.429688 352.519531 244.402344 C 352.597656 244.402344 352.699219 244.402344 352.777344 244.375 C 352.777344 244.375 352.832031 244.375 352.855469 244.375 C 352.882812 244.375 352.910156 244.375 352.933594 244.375 C 353.0625 244.375 353.195312 244.351562 353.324219 244.324219 C 353.609375 244.296875 353.894531 244.246094 354.179688 244.195312 C 354.933594 244.066406 355.660156 243.960938 356.414062 243.855469 C 356.597656 243.832031 356.804688 243.804688 356.984375 243.777344 C 357.039062 243.777344 357.089844 243.777344 357.140625 243.777344 C 357.140625 243.777344 357.167969 243.777344 357.21875 243.777344 C 357.609375 243.777344 358 243.753906 358.386719 243.726562 C 359.167969 243.726562 359.945312 243.675781 360.726562 243.675781 C 361.480469 243.675781 362.308594 243.050781 362.335938 242.246094 C 362.335938 241.46875 361.765625 240.792969 360.960938 240.792969 C 359.453125 240.792969 357.945312 240.921875 356.464844 240.871094 C 354.984375 240.816406 353.507812 240.765625 352 240.871094 C 348.910156 241.027344 345.84375 241.3125 342.78125 241.675781 C 339.820312 242.039062 336.859375 242.507812 333.898438 243.078125 C 330.988281 243.648438 328.132812 244.402344 325.277344 245.257812 C 319.40625 247.050781 313.640625 249.285156 308.082031 251.90625 C 302.707031 254.453125 297.511719 257.386719 292.578125 260.710938 C 287.4375 264.191406 282.554688 267.984375 278.035156 272.269531 C 273.464844 276.582031 269.257812 281.28125 265.464844 286.265625 C 261.777344 291.097656 258.453125 296.214844 255.570312 301.5625 C 252.558594 307.121094 249.960938 312.886719 247.832031 318.835938 C 245.699219 324.808594 244.117188 330.9375 242.949219 337.171875 C 241.832031 343.144531 241.183594 349.195312 241.027344 355.273438 C 240.972656 356.832031 241.027344 358.386719 241.128906 359.945312 C 241.183594 360.675781 241.257812 361.375 241.335938 362.101562 C 241.414062 362.726562 241.46875 363.375 241.625 363.972656 C 241.625 363.816406 241.625 363.6875 241.625 363.53125 C 241.648438 364.179688 241.777344 364.75 242.273438 365.269531 C 242.714844 365.710938 243.441406 366.023438 244.0625 365.996094 Z M 352.855469 244.375 Z M 352.855469 244.375 " fill-opacity="1" fill-rule="nonzero"/><path fill="#ffffff" d="M 241.234375 360.335938 C 241.234375 360.207031 241.234375 360.078125 241.234375 359.945312 C 241.234375 359.816406 241.207031 359.714844 241.207031 359.582031 C 241.207031 359.84375 241.234375 360.078125 241.257812 360.335938 Z M 241.234375 360.335938 " fill-opacity="1" fill-rule="nonzero"/><path fill="#ffffff" d="M 363.582031 391.058594 C 362.699219 391.839844 362.285156 393.035156 362.855469 394.152344 C 363.816406 396.074219 365.011719 397.890625 366.515625 399.449219 C 367.996094 400.980469 369.816406 402.304688 371.710938 403.292969 C 375.503906 405.34375 379.996094 406.410156 384.308594 406.046875 C 386.773438 405.835938 389.058594 405.292969 391.320312 404.332031 C 393.34375 403.472656 395.242188 402.203125 396.851562 400.695312 C 400.097656 397.707031 402.488281 393.734375 403.421875 389.449219 C 403.683594 388.253906 403.914062 387.058594 403.992188 385.839844 C 404.070312 384.644531 404.046875 383.476562 403.941406 382.28125 C 403.785156 380.101562 403.214844 378.023438 402.382812 375.996094 C 400.722656 372.023438 397.550781 368.726562 393.839844 366.570312 C 390.175781 364.441406 385.8125 363.347656 381.582031 363.53125 C 377.164062 363.738281 372.933594 365.269531 369.554688 368.152344 C 366.386719 370.855469 364.207031 374.542969 363.21875 378.566406 C 362.726562 380.542969 362.542969 382.542969 362.519531 384.59375 C 362.519531 386.59375 362.75 388.59375 363.347656 390.515625 C 363.402344 390.695312 363.503906 390.878906 363.558594 391.058594 Z M 364.777344 382.253906 C 364.777344 382.253906 364.777344 382.203125 364.777344 382.203125 C 364.777344 382.101562 364.828125 381.996094 364.855469 381.890625 C 364.90625 381.710938 364.933594 381.554688 364.984375 381.371094 C 365.089844 381.035156 365.167969 380.699219 365.296875 380.359375 C 365.503906 379.683594 365.765625 379.007812 366.050781 378.359375 C 366.128906 378.203125 366.207031 378.023438 366.285156 377.867188 C 366.285156 377.816406 366.414062 377.582031 366.4375 377.527344 C 366.59375 377.242188 366.75 376.957031 366.90625 376.671875 C 367.269531 376.046875 367.660156 375.425781 368.101562 374.828125 C 368.308594 374.542969 368.515625 374.28125 368.726562 374.023438 C 368.75 373.972656 368.957031 373.710938 368.777344 373.945312 C 368.542969 374.28125 368.957031 373.738281 369.0625 373.609375 C 369.113281 373.554688 369.140625 373.503906 369.191406 373.453125 C 369.21875 373.398438 369.53125 373.0625 369.320312 373.296875 C 369.113281 373.53125 369.347656 373.269531 369.375 373.21875 C 369.425781 373.140625 369.503906 373.089844 369.554688 373.011719 C 369.660156 372.90625 369.765625 372.777344 369.894531 372.671875 C 370.152344 372.386719 370.4375 372.128906 370.726562 371.867188 C 371.242188 371.398438 371.789062 370.957031 372.335938 370.542969 C 372.359375 370.515625 372.414062 370.492188 372.4375 370.464844 C 372.570312 370.386719 372.699219 370.285156 372.828125 370.207031 C 373.140625 369.996094 373.453125 369.816406 373.789062 369.660156 C 374.101562 369.503906 374.414062 369.324219 374.75 369.191406 C 374.90625 369.113281 375.035156 369.0625 375.191406 369.011719 C 375.242188 368.984375 375.375 368.933594 375.476562 368.90625 C 376.101562 368.699219 376.699219 368.492188 377.320312 368.335938 C 377.660156 368.257812 377.996094 368.179688 378.359375 368.128906 C 378.542969 368.101562 378.699219 368.074219 378.878906 368.050781 L 378.957031 368.050781 C 379.761719 367.972656 380.542969 367.917969 381.347656 367.945312 C 381.734375 367.945312 382.125 367.972656 382.515625 367.996094 C 382.671875 367.996094 382.828125 368.023438 382.984375 368.050781 C 382.929688 368.050781 382.984375 368.050781 383.035156 368.050781 C 383.0625 368.050781 383.113281 368.050781 383.140625 368.050781 C 383.214844 368.050781 383.269531 368.050781 383.347656 368.074219 C 383.214844 368.074219 383.191406 368.074219 383.113281 368.050781 C 383.164062 368.050781 383.191406 368.050781 383.214844 368.050781 C 384.695312 368.285156 386.152344 368.671875 387.554688 369.21875 C 389.085938 369.867188 390.539062 370.671875 391.890625 371.6875 C 393.058594 372.621094 394.125 373.683594 395.035156 374.878906 C 395.839844 376.023438 396.488281 377.242188 396.980469 378.515625 C 397.421875 379.890625 397.707031 381.292969 397.839844 382.75 C 397.890625 384.253906 397.761719 385.761719 397.476562 387.242188 C 397.085938 388.929688 396.460938 390.539062 395.734375 392.097656 C 395.113281 393.292969 394.359375 394.4375 393.476562 395.5 C 392.671875 396.382812 391.785156 397.1875 390.824219 397.890625 C 389.941406 398.460938 389.007812 398.980469 388.019531 399.371094 C 386.929688 399.761719 385.789062 400.046875 384.617188 400.203125 C 383.269531 400.332031 381.890625 400.332031 380.542969 400.175781 C 379.0625 399.941406 377.605469 399.578125 376.203125 399.03125 C 374.75 398.410156 373.375 397.65625 372.101562 396.722656 C 370.855469 395.734375 369.710938 394.59375 368.75 393.34375 C 368.359375 392.773438 367.945312 392.203125 367.632812 391.578125 C 367.191406 390.695312 366.152344 390.28125 365.191406 390.332031 C 364.59375 388.386719 364.335938 386.359375 364.441406 384.359375 C 364.464844 383.65625 364.59375 382.957031 364.726562 382.253906 Z M 364.777344 382.253906 " fill-opacity="1" fill-rule="nonzero"/><path fill="#ffffff" d="M 295.644531 324.757812 C 297.875 320.367188 300.65625 316.289062 303.847656 312.550781 C 306.785156 309.199219 310.109375 306.214844 313.71875 303.617188 C 317.953125 300.707031 322.523438 298.34375 327.300781 296.472656 C 331.742188 294.8125 336.339844 293.539062 341.015625 292.605469 C 342.390625 292.320312 343.609375 290.761719 343.246094 289.332031 C 342.859375 287.800781 341.457031 287.148438 339.976562 287.410156 C 334.753906 288.34375 329.585938 289.695312 324.625 291.589844 C 319.511719 293.539062 314.574219 295.953125 310.054688 299.070312 C 305.199219 302.421875 300.863281 306.34375 297.148438 310.914062 C 293.460938 315.457031 290.472656 320.523438 288.164062 325.871094 C 287.046875 328.445312 286.113281 331.09375 285.359375 333.792969 C 284.554688 336.703125 283.851562 339.664062 283.617188 342.675781 C 283.566406 343.378906 283.515625 344.078125 283.488281 344.753906 C 283.410156 346.3125 284.683594 347.742188 286.292969 347.6875 C 288.007812 347.636719 289.28125 346.46875 289.566406 344.804688 C 289.722656 343.765625 289.929688 342.726562 290.136719 341.714844 C 290.085938 341.976562 290.03125 342.234375 289.980469 342.496094 C 290.242188 341.324219 290.449219 340.15625 290.683594 338.988281 C 291.746094 334.054688 293.433594 329.273438 295.667969 324.757812 Z M 295.644531 324.757812 " fill-opacity="1" fill-rule="nonzero"/><path fill="#ffffff" d="M 395.058594 569.429688 C 399.371094 569.582031 403.683594 569.582031 407.96875 569.429688 C 412.253906 569.273438 416.511719 568.960938 420.746094 568.46875 C 425.210938 567.949219 429.652344 567.273438 434.066406 566.414062 C 438.273438 565.585938 442.40625 564.46875 446.507812 563.246094 C 450.898438 561.921875 455.234375 560.390625 459.492188 558.753906 C 463.492188 557.195312 467.441406 555.507812 471.285156 553.636719 C 475.152344 551.769531 478.917969 549.769531 482.632812 547.613281 C 486.347656 545.457031 489.984375 543.171875 493.515625 540.757812 C 497.308594 538.160156 501.019531 535.457031 504.628906 532.601562 C 508.007812 529.925781 511.253906 527.148438 514.421875 524.238281 C 517.589844 521.328125 520.628906 518.292969 523.5625 515.148438 C 526.707031 511.796875 529.71875 508.320312 532.574219 504.734375 C 535.355469 501.28125 538.003906 497.695312 540.496094 494.035156 C 543.199219 490.0625 545.714844 485.984375 548.078125 481.800781 C 550.574219 477.359375 552.882812 472.789062 555.015625 468.140625 C 557.015625 463.777344 558.832031 459.335938 560.46875 454.820312 C 562.105469 450.300781 563.558594 445.730469 564.804688 441.105469 C 566.128906 436.199219 567.273438 431.238281 568.179688 426.222656 C 569.066406 421.496094 569.738281 416.746094 570.234375 411.992188 C 570.726562 407.214844 571.011719 402.433594 571.089844 397.628906 C 571.140625 395.292969 571.117188 392.980469 571.0625 390.644531 C 571.117188 390.097656 571.0625 389.605469 570.832031 389.136719 C 570.699219 388.617188 570.441406 388.175781 570.027344 387.8125 C 569.351562 387.113281 568.207031 386.644531 567.21875 386.671875 C 566.128906 386.695312 564.960938 387.058594 564.15625 387.867188 C 563.453125 388.566406 562.726562 389.578125 562.753906 390.617188 C 562.882812 395.941406 562.804688 401.292969 562.46875 406.617188 C 562.128906 411.964844 561.507812 417.289062 560.675781 422.5625 C 560.234375 425.367188 559.6875 428.144531 559.117188 430.925781 C 557.921875 436.40625 556.496094 441.832031 554.804688 447.15625 C 553.039062 452.664062 551.015625 458.066406 548.730469 463.363281 C 547.507812 466.21875 546.183594 469.023438 544.808594 471.804688 C 542.316406 476.738281 539.613281 481.570312 536.652344 486.21875 C 533.769531 490.789062 530.652344 495.230469 527.328125 499.515625 C 525.667969 501.671875 523.925781 503.746094 522.160156 505.824219 C 518.601562 509.929688 514.863281 513.851562 510.941406 517.589844 C 506.890625 521.460938 502.632812 525.121094 498.242188 528.601562 C 495.90625 530.445312 493.488281 532.210938 491.074219 533.925781 C 486.527344 537.09375 481.828125 540.054688 476.996094 542.78125 C 472.039062 545.585938 466.921875 548.105469 461.726562 550.445312 C 458.894531 551.714844 456.039062 552.882812 453.15625 554 C 446.015625 556.703125 438.691406 558.859375 431.289062 560.753906 C 427.496094 561.714844 423.652344 562.546875 419.808594 563.222656 C 417.886719 563.558594 415.941406 563.871094 414.019531 564.15625 C 413.03125 564.285156 412.042969 564.414062 411.058594 564.546875 C 411.058594 564.546875 411.003906 564.546875 410.980469 564.546875 C 411.058594 564.546875 411.082031 564.546875 411.214844 564.519531 C 411.136719 564.519531 411.058594 564.519531 410.953125 564.546875 C 410.953125 564.546875 410.925781 564.546875 410.902344 564.546875 C 410.773438 564.546875 410.667969 564.570312 410.851562 564.546875 C 410.640625 564.546875 410.410156 564.597656 410.199219 564.625 C 409.707031 564.675781 409.1875 564.726562 408.695312 564.78125 C 404.253906 565.222656 399.8125 565.453125 395.34375 565.480469 C 394.304688 565.480469 393.214844 566.3125 393.191406 567.402344 C 393.164062 568.519531 393.96875 569.296875 395.058594 569.351562 Z M 395.058594 569.429688 " fill-opacity="1" fill-rule="nonzero"/><path fill="#ffffff" d="M 520.992188 401.683594 C 520.292969 401.683594 519.5625 401.941406 519.042969 402.433594 C 518.601562 402.875 518.136719 403.527344 518.160156 404.203125 C 518.160156 404.644531 518.109375 405.109375 518.058594 405.527344 C 518.03125 406.019531 517.980469 406.511719 517.929688 406.980469 C 517.851562 407.914062 517.824219 408.851562 517.773438 409.785156 C 517.695312 411.601562 517.640625 413.421875 517.511719 415.238281 C 517.277344 418.925781 516.890625 422.589844 516.316406 426.222656 C 516.007812 428.144531 515.640625 430.066406 515.253906 431.988281 C 513.589844 439.652344 511.175781 447.183594 508.085938 454.402344 C 507.226562 456.375 506.320312 458.296875 505.382812 460.21875 C 502.085938 466.738281 498.191406 472.945312 493.75 478.738281 C 492.554688 480.269531 491.332031 481.777344 490.0625 483.257812 C 485.230469 488.816406 479.828125 493.851562 474.035156 498.398438 C 472.480469 499.617188 470.867188 500.8125 469.257812 501.957031 C 463.128906 506.214844 456.609375 509.902344 449.78125 512.941406 C 447.9375 513.773438 446.066406 514.527344 444.195312 515.253906 C 439.234375 517.121094 434.144531 518.679688 429.03125 520.058594 C 423.808594 521.460938 418.511719 522.5 413.160156 523.199219 C 412.980469 523.199219 412.773438 523.25 412.589844 523.277344 C 412.511719 523.277344 412.40625 523.277344 412.332031 523.304688 C 412.332031 523.304688 412.332031 523.304688 412.304688 523.304688 C 412.277344 523.304688 412.199219 523.304688 412.175781 523.304688 C 412.042969 523.304688 411.914062 523.328125 411.785156 523.355469 C 411.5 523.382812 411.214844 523.433594 410.925781 523.484375 C 410.175781 523.617188 409.449219 523.71875 408.695312 523.824219 C 408.511719 523.847656 408.304688 523.875 408.121094 523.902344 C 408.070312 523.902344 408.019531 523.902344 407.96875 523.902344 C 407.96875 523.902344 407.941406 523.902344 407.890625 523.902344 C 407.5 523.902344 407.109375 523.925781 406.71875 523.953125 C 405.941406 523.980469 405.160156 524.003906 404.382812 524.003906 C 403.628906 524.003906 402.796875 524.628906 402.773438 525.433594 C 402.773438 526.210938 403.34375 526.886719 404.148438 526.886719 C 405.65625 526.886719 407.160156 526.757812 408.640625 526.808594 C 410.121094 526.863281 411.601562 526.914062 413.109375 526.808594 C 416.199219 526.652344 419.265625 526.367188 422.328125 526.003906 C 425.289062 525.640625 428.25 525.171875 431.210938 524.601562 C 434.121094 524.03125 436.976562 523.277344 439.832031 522.421875 C 445.703125 520.628906 451.46875 518.394531 457.027344 515.773438 C 462.402344 513.226562 467.597656 510.292969 472.53125 506.96875 C 477.671875 503.488281 482.554688 499.695312 487.074219 495.410156 C 491.644531 491.101562 495.851562 486.398438 499.644531 481.414062 C 503.332031 476.582031 506.65625 471.464844 509.539062 466.117188 C 512.550781 460.558594 515.148438 454.792969 517.277344 448.84375 C 519.40625 442.871094 520.992188 436.742188 522.160156 430.511719 C 523.277344 424.535156 523.925781 418.484375 524.082031 412.40625 C 524.136719 410.851562 524.082031 409.292969 523.980469 407.734375 C 523.925781 407.007812 523.847656 406.304688 523.769531 405.578125 C 523.695312 404.953125 523.640625 404.304688 523.484375 403.707031 C 523.484375 403.863281 523.484375 403.992188 523.484375 404.148438 C 523.460938 403.5 523.328125 402.929688 522.835938 402.410156 C 522.394531 401.96875 521.667969 401.65625 521.042969 401.683594 Z M 520.992188 401.683594 " fill-opacity="1" fill-rule="nonzero"/><path fill="#ffffff" d="M 523.875 407.34375 C 523.875 407.472656 523.875 407.601562 523.875 407.734375 C 523.875 407.863281 523.902344 407.96875 523.902344 408.097656 C 523.902344 407.835938 523.875 407.601562 523.847656 407.34375 Z M 523.875 407.34375 " fill-opacity="1" fill-rule="nonzero"/><path fill="#ffffff" d="M 469.441406 442.921875 C 467.207031 447.3125 464.425781 451.390625 461.234375 455.128906 C 458.296875 458.480469 454.972656 461.46875 451.363281 464.0625 C 447.132812 466.972656 442.558594 469.335938 437.78125 471.207031 C 433.339844 472.867188 428.742188 474.140625 424.070312 475.074219 C 422.691406 475.363281 421.472656 476.917969 421.835938 478.347656 C 422.226562 479.878906 423.628906 480.53125 425.109375 480.269531 C 430.328125 479.335938 435.496094 477.984375 440.457031 476.089844 C 445.574219 474.140625 450.507812 471.726562 455.027344 468.609375 C 459.882812 465.257812 464.21875 461.335938 467.933594 456.765625 C 471.621094 452.222656 474.609375 447.15625 476.917969 441.808594 C 478.035156 439.234375 478.972656 436.585938 479.722656 433.886719 C 480.53125 430.976562 481.230469 428.015625 481.464844 425.003906 C 481.515625 424.300781 481.570312 423.601562 481.59375 422.925781 C 481.671875 421.367188 480.398438 419.941406 478.789062 419.992188 C 477.074219 420.042969 475.804688 421.210938 475.515625 422.875 C 475.363281 423.914062 475.152344 424.953125 474.945312 425.964844 C 474.996094 425.707031 475.050781 425.445312 475.101562 425.1875 C 474.84375 426.355469 474.632812 427.523438 474.402344 428.691406 C 473.335938 433.625 471.648438 438.40625 469.414062 442.921875 Z M 469.441406 442.921875 " fill-opacity="1" fill-rule="nonzero"/><g clip-path="url(#386b942cf0)"><g clip-path="url(#3302ae993d)"><g clip-path="url(#4fb389615d)"><path fill="#ffffff" d="M 566.117188 208.316406 C 588.371094 210.746094 595.910156 230.554688 596.84375 250.390625 C 596.984375 252.351562 598.691406 253.730469 600.519531 253.820312 C 600.851562 253.839844 601.183594 253.8125 601.515625 253.742188 C 601.515625 253.730469 601.515625 253.730469 601.527344 253.730469 C 605.550781 252.679688 604.578125 246.863281 605.8125 243.964844 C 607.910156 234.882812 613.242188 226.269531 621.054688 221.0625 C 627.75 217.253906 635.699219 216.535156 643.023438 214.414062 C 645.339844 213.777344 648.214844 213.648438 649.617188 211.425781 C 650.796875 209.625 650.054688 207.347656 648.386719 206.179688 C 646.378906 205.019531 643.863281 205.09375 641.648438 204.496094 C 631.484375 202.40625 619.796875 199.789062 613.988281 190.328125 C 609.292969 183.421875 608.1875 174.898438 607.644531 166.777344 C 607.609375 165.921875 607.332031 165.113281 606.855469 164.464844 C 606.699219 160.027344 600.050781 159.539062 599.3125 163.992188 C 599.066406 165.566406 598.78125 167.144531 598.40625 168.714844 C 594.078125 186.113281 583.570312 199.417969 564.8125 200.960938 C 560.949219 202.398438 562.035156 208.332031 566.117188 208.316406 Z M 580.722656 204.738281 C 590.375 200.121094 598.074219 191.4375 602.011719 181.53125 C 604.871094 195.726562 616.402344 206.523438 630.355469 209.71875 C 626.789062 210.582031 623.210938 211.46875 619.875 213.023438 C 611.707031 216.976562 605.8125 224.472656 601.785156 232.425781 C 598.804688 220.984375 591.878906 209.640625 580.722656 204.738281 Z M 580.722656 204.738281 " fill-opacity="1" fill-rule="nonzero"/></g></g></g><g clip-path="url(#27f572089a)"><g clip-path="url(#0e2b10d46d)"><g clip-path="url(#b382948c0e)"><path fill="#ffffff" d="M 571.578125 124.773438 C 569.289062 124.699219 567.015625 124.457031 565.226562 124.269531 C 553.152344 122.917969 540.433594 118.015625 531.898438 109.273438 C 526.347656 101.691406 525.765625 91.550781 524.035156 82.570312 C 524.136719 79.554688 525.476562 74.945312 521.253906 74.179688 C 519.285156 73.84375 517.101562 75.234375 516.859375 77.289062 C 515.835938 83.554688 514.101562 89.683594 512.273438 95.273438 C 507.332031 107.890625 490.527344 121.179688 477.457031 124.246094 C 476.210938 124.53125 474.9375 124.359375 473.695312 124.394531 C 470.972656 124.648438 469.503906 127.636719 470.714844 130.007812 C 471.566406 131.660156 473.222656 132.117188 474.96875 132.136719 C 496.4375 135.195312 503.898438 145.125 512.851562 163.664062 C 515.414062 169.488281 517.277344 175.617188 519.121094 181.707031 C 519.53125 184.140625 520.707031 187.246094 523.34375 187.375 C 523.699219 187.394531 524.082031 187.355469 524.496094 187.257812 C 528.84375 186.050781 527.128906 180.59375 527.78125 177.230469 C 528.863281 167.425781 531.246094 157.214844 538.070312 149.726562 C 547.554688 140.683594 560.589844 136.152344 572.804688 132.132812 C 576.574219 130.789062 575.628906 124.8125 571.578125 124.773438 Z M 555.414062 130.378906 C 552.867188 131.453125 550.367188 132.609375 547.875 133.835938 C 534.539062 139.59375 524.667969 151.445312 521.960938 165.792969 C 515.433594 150.414062 506.675781 133.207031 489.566406 127.941406 C 501.632812 120.894531 514.066406 111.6875 519.269531 98.230469 C 521.550781 116.765625 539.132812 125.867188 555.414062 130.378906 Z M 555.414062 130.378906 " fill-opacity="1" fill-rule="nonzero"/></g></g></g><g clip-path="url(#797c18fb8f)"><g clip-path="url(#57c95f0f41)"><g clip-path="url(#6924bfdcdd)"><path fill="#ffffff" d="M 453.707031 275.261719 C 466.539062 276.605469 475.78125 279.832031 479.179688 293.496094 C 481.566406 301.429688 483.429688 309.503906 485.222656 317.597656 C 485.539062 319.03125 485.773438 320.542969 486.453125 321.859375 C 487.082031 323.097656 488.304688 323.738281 489.5625 323.800781 C 491.0625 323.875 492.609375 323.128906 493.257812 321.597656 C 494.792969 311.019531 494.398438 298.726562 502.375 290.480469 C 511.121094 284.519531 521.789062 281.871094 531.449219 277.640625 C 534.546875 276.078125 539.5625 275.628906 540.300781 271.605469 C 540.476562 269.996094 539.878906 268.65625 538.554688 267.734375 C 536.398438 266.535156 533.828125 266.546875 531.304688 266.5625 C 530.113281 266.5625 528.929688 266.574219 527.804688 266.457031 C 517.859375 266.375 506.480469 265.15625 499.40625 257.386719 C 492.691406 247.769531 494.292969 234.851562 491.371094 224.082031 C 490.308594 220.09375 484.003906 220.847656 483.976562 225.054688 C 484.65625 232.59375 484.75 240.484375 480.8125 247.230469 C 477.816406 252.347656 475.253906 258.238281 470.273438 261.734375 C 464.996094 264.621094 459.277344 266.632812 453.457031 268.0625 C 450.132812 269.21875 450.304688 274.320312 453.707031 275.261719 Z M 469.160156 270.785156 C 478.714844 267.523438 483.574219 258.242188 487.988281 249.871094 C 490.261719 265.34375 505.996094 273.09375 520.289062 273.800781 C 517.433594 274.953125 514.601562 276.171875 511.753906 277.34375 C 499.679688 281.164062 492.316406 287.273438 488.847656 299.753906 C 486.078125 288.125 481.792969 274.757812 469.160156 270.785156 Z M 469.160156 270.785156 " fill-opacity="1" fill-rule="nonzero"/></g></g></g></svg>